<svg width="28" height="28" viewBox="0 0 28 28" fill="none" xmlns="http://www.w3.org/2000/svg">
<path d="M12.1257 0C11.2736 0 10.5456 0.613584 10.4018 1.45295L10.0314 3.6044C9.8367 3.67886 9.64248 3.75592 9.45348 3.84055L7.67365 2.58274C6.8922 2.04247 5.97122 2.24021 5.42649 2.77539L2.77539 5.42525C2.17275 6.02788 2.09271 6.97623 2.58398 7.67241L3.84055 9.45348C3.75528 9.64248 3.67886 9.83546 3.6044 10.0302L1.45295 10.4006C0.612947 10.545 0 11.2736 0 12.1257V15.8743C0 16.7264 0.613584 17.4544 1.45295 17.5982L3.6044 17.9686C3.67886 18.1633 3.75592 18.3575 3.84055 18.5465L2.58274 20.3263C2.09147 21.0219 2.17275 21.9709 2.77539 22.5735L5.42525 25.2246C6.11507 25.8992 7.07932 25.8456 7.67241 25.416L9.45348 24.1594C9.64248 24.2447 9.83546 24.3211 10.0302 24.3956L10.4006 26.5471C10.545 27.3871 11.2736 28 12.1257 28H15.8743C16.7264 28 17.4544 27.3864 17.5982 26.5471L17.9686 24.3956C18.1633 24.3211 18.3575 24.2441 18.5465 24.1594L20.3263 25.4173C20.8513 25.8042 21.8551 25.9437 22.5735 25.2246L25.2246 22.5748C25.8272 21.9721 25.9073 21.0238 25.416 20.3276L24.1594 18.5465C24.2447 18.3575 24.3211 18.1645 24.3956 17.9698L26.5471 17.5994C27.3871 17.455 28 16.7264 28 15.8743V12.1257C28 11.2736 27.3864 10.5456 26.5471 10.4018L24.3956 10.0314C24.3211 9.8367 24.2441 9.64248 24.1594 9.45348L25.4173 7.67365C25.9085 6.97811 25.8272 6.02913 25.2246 5.42649L22.5748 2.77539C21.9021 2.11866 20.9697 2.1328 20.3276 2.58398L18.5465 3.84055C18.3575 3.75528 18.1645 3.67886 17.9698 3.6044L17.5994 1.45295C17.455 0.612947 16.7264 0 15.8743 0H12.1257ZM12.864 2.54545H15.1373C15.1761 2.54545 15.2092 2.57315 15.2156 2.61133L15.7065 5.46626C16.8316 5.87036 17.8849 6.29627 18.8299 6.75763L21.1926 5.08842C21.2245 5.06615 21.2684 5.06976 21.2958 5.09712L22.9029 6.70543C22.9302 6.7328 22.9351 6.77553 22.9128 6.80735L21.2424 9.17134C21.7254 10.1927 22.1608 11.2314 22.5337 12.2935L25.3887 12.7857C25.4269 12.7921 25.4545 12.8252 25.4545 12.864V15.1373C25.4545 15.1761 25.4262 15.2092 25.3874 15.2156L22.5337 15.7065C22.1615 16.7686 21.7311 17.8092 21.2424 18.8299L22.9128 21.1939C22.9351 21.2257 22.9302 21.2684 22.9029 21.2958L21.2958 22.9041C21.2684 22.9315 21.2245 22.9351 21.1926 22.9128L18.8299 21.2436C17.7863 21.7342 16.745 22.164 15.7065 22.535L15.2143 25.3887C15.2079 25.4269 15.1748 25.4545 15.136 25.4545H12.8627C12.8239 25.4545 12.7908 25.4262 12.7844 25.3874L12.2935 22.5337C11.2696 22.178 10.2296 21.754 9.1701 21.2424L6.80611 22.9128C6.77429 22.9351 6.73155 22.9302 6.70419 22.9029L5.09588 21.2958C5.06852 21.2684 5.06491 21.2245 5.08718 21.1926L6.75639 18.8299C6.26066 17.7704 5.83029 16.7291 5.46502 15.7065L2.61133 15.2143C2.57315 15.2079 2.54545 15.1748 2.54545 15.136V12.8627C2.54545 12.8239 2.57315 12.7914 2.61133 12.7844L5.46626 12.2923C5.83599 11.2512 6.26 10.2106 6.75763 9.1701L5.08718 6.80611C5.06491 6.77429 5.06976 6.73155 5.09712 6.70419L6.70419 5.09588C6.73155 5.06852 6.77553 5.06491 6.80735 5.08718L9.1701 6.75639C10.1552 6.28357 11.1996 5.85575 12.2935 5.46502L12.7857 2.61133C12.7921 2.57315 12.8252 2.54545 12.864 2.54545ZM14 8.27273C10.8366 8.27273 8.27273 10.8366 8.27273 14C8.27273 17.1634 10.8366 19.7273 14 19.7273C17.1634 19.7273 19.7273 17.1634 19.7273 14C19.7273 10.8366 17.1634 8.27273 14 8.27273ZM14 10.8182C15.757 10.8182 17.1818 12.243 17.1818 14C17.1818 15.757 15.757 17.1818 14 17.1818C12.243 17.1818 10.8182 15.757 10.8182 14C10.8182 12.243 12.243 10.8182 14 10.8182Z" 
fill="currentColor"/>
</svg>
