<svg width="28" height="28" viewBox="0 0 28 28" fill="none" xmlns="http://www.w3.org/2000/svg">
<path fill-rule="evenodd" clip-rule="evenodd" d="M13.1378 14.8622V2.60022C13.1378 2.1165 12.7453 1.72132 12.2626 1.75354C11.8212 1.78301 11.3825 1.8347 10.9482 1.90811C9.12901 2.21562 7.38654 2.90435 5.83884 3.93849C3.67834 5.38209 1.99443 7.43393 1.00006 9.83456C0.00569243 12.2352 -0.25448 14.8768 0.252445 17.4252C0.759371 19.9737 2.01063 22.3147 3.84798 24.152C5.68534 25.9894 8.02627 27.2406 10.5748 27.7476C13.1232 28.2545 15.7648 27.9943 18.1654 26.9999C20.5661 26.0056 22.6179 24.3217 24.0615 22.1612C25.0957 20.6135 25.7844 18.871 26.0919 17.0518C26.1653 16.6175 26.217 16.1788 26.2465 15.7374C26.2787 15.2547 25.8835 14.8622 25.3998 14.8622H13.1378ZM23.8648 17.0518H11.824C11.3403 17.0518 10.9482 16.6597 10.9482 16.176V4.1352C9.56434 4.41768 8.24122 4.96672 7.05534 5.7591C5.25492 6.9621 3.85166 8.67198 3.02302 10.6725C2.19438 12.673 1.97757 14.8743 2.40001 16.9981C2.82245 19.1218 3.86516 21.0726 5.39629 22.6037C6.92742 24.1348 8.8782 25.1776 11.0019 25.6C13.1257 26.0224 15.327 25.8056 17.3275 24.977C19.328 24.1483 21.0379 22.7451 22.2409 20.9447C23.0333 19.7588 23.5823 18.4357 23.8648 17.0518Z" fill="currentColor"/>
<path fill-rule="evenodd" clip-rule="evenodd" d="M19.0792 2.99567C18.432 2.7276 17.7622 2.52292 17.0792 2.38349V10.9208L25.6165 10.9208C25.4771 10.2378 25.2724 9.56797 25.0043 8.92079C24.4541 7.59249 23.6477 6.38557 22.6311 5.36894C21.6144 4.35231 20.4075 3.54587 19.0792 2.99567ZM27.8436 10.9208C27.6794 9.94946 27.4061 8.99732 27.0273 8.08285C26.367 6.4889 25.3993 5.04059 24.1794 3.82063C22.9594 2.60068 21.5111 1.63295 19.9172 0.972714C19.0027 0.593928 18.0505 0.320606 17.0792 0.156412C16.6443 0.0829106 16.2056 0.0312774 15.7647 0.00184074C15.2821 -0.0303833 14.8895 0.36479 14.8895 0.848511V12.2346C14.8895 12.7183 15.2817 13.1105 15.7654 13.1105L27.1515 13.1105C27.6352 13.1105 28.0304 12.7179 27.9982 12.2353C27.9687 11.7944 27.9171 11.3557 27.8436 10.9208Z" fill="currentColor"/>
<path d="M7.05534 5.7591C8.24122 4.96672 9.56434 4.41768 10.9482 4.1352V16.176C10.9482 16.6597 11.3403 17.0518 11.824 17.0518H23.8648C23.5823 18.4357 23.0333 19.7588 22.2409 20.9447C21.0379 22.7451 19.328 24.1483 17.3275 24.977C15.327 25.8056 13.1257 26.0224 11.0019 25.6C8.8782 25.1776 6.92742 24.1348 5.39629 22.6037C3.86516 21.0726 2.82245 19.1218 2.40001 16.9981C1.97757 14.8743 2.19438 12.673 3.02302 10.6725C3.85166 8.67198 5.25492 6.9621 7.05534 5.7591Z" fill="currentColor"/>
<path d="M17.0792 2.38349C17.7622 2.52292 18.432 2.7276 19.0792 2.99567C20.4075 3.54587 21.6144 4.35231 22.6311 5.36894C23.6477 6.38557 24.4541 7.59249 25.0043 8.92079C25.2724 9.56797 25.4771 10.2378 25.6165 10.9208L17.0792 10.9208V2.38349Z" fill="#27104E"/>
</svg>
